<?xml version="1.0" encoding="utf-8"?>
<!-- Generator: Adobe Illustrator 26.0.2, SVG Export Plug-In . SVG Version: 6.00 Build 0)  -->
<svg version="1.1" xmlns="http://www.w3.org/2000/svg" xmlns:xlink="http://www.w3.org/1999/xlink" x="0px" y="0px"
	 viewBox="0 0 472 340" style="enable-background:new 0 0 472 340;" xml:space="preserve">
<style type="text/css">
	.st0{fill:#DBC64E;stroke:#000000;stroke-miterlimit:10;}
	.st1{fill:#FFFFFF;}
	.st2{fill:none;stroke:#FFFFFF;stroke-width:7;stroke-miterlimit:10;}
</style>
<g id="Layer_1">
	<rect class="st0" width="472" height="340"/>
</g>
<g id="Layer_2">
	<g>
		<path class="st1" d="M48.26,79.1c4.71,3.68,13.12,4.57,18.03,0.78c7.82-6.02,0.51-19.01,8.63-26.66c5.27-4.97,15-5.53,21.96-1.57
			c6.39,3.64,9.51,10.57,9.84,16.1c0.69,11.51-10.35,24-27.88,28.6c0.26,15.42,0.52,30.84,0.78,46.26h25.88c0-11.76,0-23.52,0-35.28
			c16.72-7.8,27.7-23.72,27.82-40.62c0.16-22.01-15.9-45.58-43.47-45.58c-2.72,0.02-28.88,0.65-40.81,20.34
			C42.24,52.68,38.99,71.86,48.26,79.1z"/>
		<path class="st1" d="M93.03,173.43L93.03,173.43c-6.85,0-12.41-5.55-12.41-12.41v0c0-6.85,5.55-12.41,12.41-12.41h0
			c6.85,0,12.41,5.55,12.41,12.41v0C105.44,167.87,99.88,173.43,93.03,173.43z"/>
	</g>
	<g>
		<path class="st1" d="M341.82,142.77c-84.91,10.49-94.82-122.82-11.02-125.94C415.71,6.35,425.62,139.65,341.82,142.77z
			 M332.61,37.53c-56.23,1.78-49.34,91.95,7.4,84.54C396.23,120.3,389.34,30.12,332.61,37.53z"/>
		<path class="st1" d="M422.26,170.81l-53.65-41.33c-13.41-10.01,3.71-32.27,16.82-21.84c0,0,53.65,41.33,53.65,41.33
			c5.5,4.24,6.53,12.14,2.29,17.64C437.39,173.28,428.59,175.78,422.26,170.81z"/>
	</g>
	<g>
		<path class="st1" d="M119.48,242.51c26.01-11.06,52.01-22.12,78.02-33.18c11.32-11.97,22.64-23.93,33.95-35.9
			c0.32,50.11,0.64,100.22,0.96,150.33c-12.22-11.87-24.43-23.74-36.65-35.61c-25.43-10.06-50.86-20.12-76.29-30.18
			C119.48,252.81,119.48,247.66,119.48,242.51z"/>
		<path class="st2" d="M258.49,186.56c5.38,10.66,15.73,34.73,14.14,66.71c-1.6,32.26-14.48,55.34-20.92,65.39"/>
		<path class="st2" d="M287.95,205.3c4.22,8.37,12.35,27.28,11.11,52.39c-1.25,25.33-11.37,43.46-16.43,51.36"/>
		<path class="st2" d="M317.36,221.69c3,5.94,8.77,19.36,7.88,37.18c-0.89,17.98-8.07,30.84-11.66,36.45"/>
	</g>
</g>
</svg>
